<?xml version="1.0"?>
<svg width="677" height="438" xmlns="http://www.w3.org/2000/svg">

 <g>
  <title>background</title>
  <rect fill="none" id="canvas_background" height="440" width="679" y="-1" x="-1"/>
 </g>
 <g>
  <title>Layer 1</title>
  <path id="svg_1" d="m223.399994,5.5c6.900009,-0.899994 14.100006,-0.699997 21.100006,-0.100006c1,0.5 2,1 3.100006,1.400009c0.399994,0.099991 1.399994,0.300003 1.899994,0.300003c8.399994,3.5 14.700012,10.199997 20.700012,16.799988c2.699982,3.400009 4.599976,7.400009 7.199982,11c2.899994,0.300003 5.899994,0.100006 8.800018,-0.099991c3.199982,-1 6.5,-0.800003 9.799988,-0.800003c9.399994,0 18.700012,0 28,0c2.299988,-0.100006 4.600006,0.100006 6.799988,0.800003c4.800018,0.399994 9.600006,0 14.400024,0.399994c3.199982,1 6.699982,0.800003 10,1c3.099976,0.800003 6.399994,0.800003 9.5,1.5c2.299988,0.199997 4.699982,0.5 7,0.900009c2,0.299988 4,0.599991 6,1.099991c1.899994,0.199997 3.899994,0.5 5.899994,0.900009c1.699982,0.299988 3.299988,0.699997 5,1.099991c0.899994,0.199997 1.899994,0.400009 2.799988,0.600006c2,0.5 4.100006,0.899994 6.200012,1.300003c1.299988,0.399994 2.600006,0.699997 4,1c1.299988,0.399994 2.600006,0.699997 4,1.099991c0.399994,0.100006 1.399994,0.5 1.799988,0.600006c1.700012,0.5 3.399994,0.899994 5.100006,1.399994c1,0.300003 2,0.600006 3,1c1,0.300003 2,0.600006 3,1c1,0.300003 2.100006,0.699997 3.100006,1.100006c0.399994,0.099991 1.399994,0.300003 1.799988,0.399994c1.399994,0.5 2.800018,1 4.100006,1.5c1.100006,0.400009 2.100006,0.699997 3.100006,1.100006c0.5,0.099991 1.399994,0.199997 1.899994,0.300003c1,0.599991 2,1.199997 3,1.799988c0.5,0.100006 1.5,0.100006 2,0.200012c1,0.599991 2,1.199997 3,1.799988c0.5,0.100006 1.5,0.100006 2,0.200012c1,0.599991 2,1.199997 3,1.799988c0.5,0.100006 1.399994,0.200012 1.899994,0.200012c2.399994,1.299988 4.800018,2.5 7.200012,3.799988c0.399994,0 1.399994,0.200012 1.799988,0.200012c16.100006,7.899994 31.700012,16.799988 46.300018,27.199997c5,3.399994 9.399963,7.800003 14.799988,10.699997c3.5,0 7,-0.199997 10.299988,0.699997c3.299988,0.300003 6.799988,0.100006 10,1.100006c4.299988,0.399994 8.799988,-0.300003 13,1c5.299988,0.599991 10.799988,-0.5 16,1c6.799988,0.399994 13.700012,0.300003 20.5,0c2.600037,-0.699997 5.299988,-1.199997 7.900024,-1.900009c-2.5,-2.5 -4.600037,-5.299988 -6.200012,-8.399994c0,-1.300003 0,-2.699997 0,-4c2,-5.600006 7.599976,-7.899994 12.5,-10.300003c0.5,-0.099991 1.400024,-0.399994 1.900024,-0.5c1.299988,-0.399994 2.699951,-0.699997 4,-1.099991c2.099976,-0.400009 4.199951,-0.800003 6.299988,-1.400009c2.799988,-0.199997 5.700012,-0.199997 8.5,-0.399994c3.399963,-1.100006 7.200012,-1.100006 10.599976,-0.100006c2.900024,0.300003 5.799988,0.300003 8.700012,0.800003c1.400024,0.399994 2.700012,0.800003 4.099976,1.300003c0.5,0 1.400024,0.199997 1.900024,0.300003c2.700012,1.399994 5.299988,3.099991 7.5,5.099991c0,1.800003 0,3.600006 0,5.400009c-2.299988,2.199997 -4.5,4.699997 -7.299988,6.299988c-2.299988,-0.799988 -1.700012,2.400009 0.200012,0.900009c4.599976,0.199997 9.199951,-0.100006 13.799988,0.800003c0.899963,0.199997 1.799988,0.399994 2.799988,0.599991c1,0.699997 2,1.5 3.099976,2.199997c0.800049,1.100006 1.600037,2.200012 2.400024,3.200012c0,3 0,5.899994 0,8.799988c-1.5,3 -3.299988,5.900009 -6.299988,7.5c-0.5,0.200012 -1.5,0.400009 -2.100037,0.5c-4.599976,1 -9.5,0.100006 -14.099976,1.600006c3,2.600006 6.400024,4.899994 8.599976,8.399994c-0.099976,2.700012 -0.099976,5.5 -0.699951,8.300018c-0.100037,0.5 -0.400024,1.5 -0.5,2c-2.300049,2.199982 -4.600037,4.5 -7.200012,6.299988c-5.100037,-0.100006 -10.299988,0.399994 -15.299988,-0.600006c-1,-0.199982 -1.900024,-0.5 -2.800049,-0.699982c-1.699951,-0.5 -3.5,-0.900024 -5.199951,-1.5c-0.5,0 -1.400024,-0.200012 -1.900024,-0.300018c-1,-0.600006 -2,-1.199982 -3,-1.799988c-0.5,-0.100006 -1.5,-0.200012 -1.900024,-0.200012c-6,-2.899994 -12.099976,-6 -15.799988,-11.600006c0.299988,-1.499985 0.700012,-2.999985 1.100037,-4.399994c-2.900024,0.100006 -5.900024,0 -8.700012,0.900009c-4.100037,0.300003 -8.299988,0.099991 -12.400024,0.399994c-5.700012,1.800003 -11.899963,-0.199997 -17.599976,1.600006c-5.100037,0.400009 -10.299988,0 -15.400024,0.400009c-3.5,1.099976 -7.200012,0.799988 -10.700012,0.799988c1.800049,2.700012 3.300049,5.700012 4.800049,8.600006c0.099976,0.399994 0.199951,1.399994 0.199951,1.799988c0.900024,1.700012 1.800049,3.399994 2.800049,5.100006c0.099976,0.5 0.199951,1.399994 0.299988,1.899994c0.399963,1 0.700012,2.100006 1.099976,3.100006c0.5,1 0.900024,2 1.5,3c0.200012,1.299988 0.5,2.700012 0.799988,4.100006c0.200012,0.399994 0.5,1.399994 0.600037,1.799988c0.399963,1 0.799988,2.100006 1.200012,3.100006c0.299988,1.299988 0.599976,2.600006 1,3.899994c0.399963,1.700012 0.599976,3.300018 1,5c0.399963,1.600006 0.699951,3.300018 1,5c0.399963,2.300018 0.699951,4.600006 1,6.899994c0.799988,3.600006 0.599976,7.200012 0.799988,10.900024c1.299988,4.699982 1.200012,9.799988 0.099976,14.599976c-0.299988,3.100006 -0.299988,6.300018 -0.5,9.5c-0.599976,2.400024 -0.899963,4.800018 -1.399963,7.300018c-0.400024,1.299988 -0.700012,2.600006 -1.100037,4c-0.299988,1.299988 -0.599976,2.600006 -0.899963,3.899994c-0.400024,1 -0.700012,2 -1.100037,3c-0.299988,1 -0.599976,2 -0.899963,3c-0.400024,1 -0.800049,2.100006 -1.200012,3.100006c-0.100037,0.5 -0.299988,1.399994 -0.400024,1.899994c-6.399963,12.899994 -12.899963,26.5 -24,36.100006c0.299988,1 0.600037,2 0.900024,2.899994c0.299988,1.399994 0.599976,2.700012 0.899963,4.100006c0.400024,1.299988 0.700012,2.600006 1.100037,4c0.099976,0.399994 0.399963,1.399994 0.599976,1.799988c0.5,1.700012 0.900024,3.5 1.400024,5.200012c0.200012,0.899994 0.399963,1.799988 0.599976,2.799988c0.400024,1.300018 0.700012,2.700012 1,4c0.5,1.700012 0.900024,3.5 1.400024,5.200012c0.200012,0.899994 0.399963,1.799988 0.599976,2.799988c0.5,2 0.900024,4.100006 1.400024,6.200012c0.200012,0.899994 0.399963,1.899994 0.599976,2.799988c0.400024,1.300018 0.700012,2.700012 1.100037,4c0.399963,1.700012 0.599976,3.300018 0.899963,5c0.400024,1.300018 0.700012,2.700012 1.100037,4c0.399963,1.700012 0.599976,3.300018 1,5c0.299988,1.600006 0.599976,3.300018 0.899963,5c0.5,2.100006 0.900024,4.200012 1.400024,6.300018c0.200012,1.5 0.399963,3.099976 0.599976,4.599976c0.600037,2.800018 0.799988,5.600006 1.400024,8.400024c0.299988,2.699982 0.299988,5.5 1.099976,8.099976c0.200012,8.300018 0.700012,16.600037 -0.299988,24.799988c-0.400024,1.700012 -0.799988,3.300049 -1.200012,5c-0.099976,0.5 -0.299988,1.400024 -0.5,1.900024c-2.299988,4.200012 -4.099976,9.099976 -8.299988,12c-2.099976,1.700012 -4.5,3 -6.900024,4.299988c-1.099976,0.299988 -2.099976,0.5 -3.099976,0.799988c-1,0.400024 -2,0.800049 -3,1.200012c-0.5,0.100037 -1.5,0.400024 -1.900024,0.5c-1.399963,0.400024 -2.699951,0.700012 -4,1.100037c-2.5,0.5 -4.899963,0.799988 -7.299988,1.299988c-2.200012,0.200012 -4.399994,0.399963 -6.5,0.599976c-3,0.700012 -6,0.700012 -9,1c-4.5,1.200012 -9.199982,0.600037 -13.799988,0.700012c-4.200012,-0.099976 -8.600006,0.400024 -12.799988,-0.700012c-3,-0.299988 -6,-0.299988 -8.900024,-0.899963c-2,-0.300049 -3.899994,-0.600037 -5.899994,-1c-1.699982,-0.400024 -3.299988,-0.600037 -5,-1c-1.299988,-0.400024 -2.600006,-0.700012 -4,-1.100037c-0.399994,-0.200012 -1.399994,-0.5 -1.799988,-0.700012c-1.399994,-0.299988 -2.800018,-0.599976 -4.200012,-0.799988c-1,-0.599976 -2,-1.099976 -2.899994,-1.700012c-0.5,-0.099976 -1.5,-0.199951 -1.899994,-0.199951c-4.600006,-2.5 -9.600006,-4.5 -13.399994,-8.100037c-2.400024,-2.200012 -4.200012,-4.799988 -6.100006,-7.299988c-0.100006,-0.5 -0.300018,-1.400024 -0.300018,-1.900024c-0.399994,-1.099976 -0.699982,-2.099976 -1,-3.099976c-0.699982,-2.299988 -1.899994,-4.299988 -4,-5.400024c-1.799988,-0.199951 -3.699982,-0.399963 -5.5,-0.699951c-1.199982,-0.300049 -2.399994,-0.5 -3.699982,-0.700012c-2,-0.5 -4.100006,-0.900024 -6.200012,-1.299988c-1.299988,-0.400024 -2.600006,-0.700012 -3.899994,-1c-1,-0.400024 -2,-0.700012 -3,-1.100037c-1,-0.299988 -2.100006,-0.700012 -3.100006,-1.099976c-0.399994,-0.100037 -1.399994,-0.299988 -1.799988,-0.400024c-1,-0.399963 -2.100006,-0.799988 -3.100006,-1.099976c-4.200012,-2.200012 -8,-5 -10.399994,-9.200012c-0.100006,-0.5 -0.300018,-1.399994 -0.399994,-1.899994c-0.400024,-1.600006 -0.800018,-3.300018 -1.200012,-5c-0.600006,-2.399994 -0.600006,-5 0.200012,-7.399994c0.299988,-3 0.299988,-6 0.899994,-8.900024c0,-0.299988 0,-0.799988 0,-1.099976c0.5,-7.200012 1.199982,-15.100006 -2.899994,-21.5c-0.900024,-1.400024 -2,-2.600006 -3.100006,-3.900024c-2,0.200012 -4.100006,0.400024 -6.200012,0.800018c-0.899994,0.199982 -1.899994,0.5 -2.799988,0.799988c-1.700012,0.300018 -3.300018,0.600006 -5,1c-1.700012,0.399994 -3.300018,0.700012 -5,1c-2.600006,0.5 -5.200012,0.700012 -7.800018,0.899994c-6.099976,1.200012 -12.399994,1 -18.399994,0.100006c-1,-0.199982 -1.899994,-0.399994 -2.899994,-0.600006c-0.700012,-0.299988 -2.100006,-0.899994 -2.799988,-1.199982c0.299988,1.699982 0.599976,3.399994 1,5c0.199982,1.299988 0.399994,2.5 0.599976,3.799988c0.400024,1.600006 0.700012,3.300018 1.100006,5c0.399994,1.600006 0.700012,3.300018 1,5c0.399994,2 0.700012,3.899994 1,5.899994c0.399994,2 0.700012,4 1,6c0.5,2.600006 0.700012,5.300018 0.899994,7.900024c0.700012,3 0.700012,6 1,9c1.200012,4.5 0.600006,9.200012 0.700012,13.799988c-0.100006,4.900024 0.399994,9.900024 -0.600006,14.700012c-0.299988,1.899963 -0.600006,3.899963 -1,5.899963c-0.199982,0.5 -0.399994,1.400024 -0.5,1.900024c-3.100006,5.599976 -8.899994,8.700012 -14.5,11.400024c-0.399994,0 -1.399994,0.099976 -1.899994,0.199951c-0.899994,0.5 -1.899994,1.100037 -2.899994,1.700012c-1.399994,0.200012 -2.800018,0.5 -4.200012,0.799988c-0.399994,0.200012 -1.399994,0.600037 -1.799988,0.800049c-1.700012,0.399963 -3.300018,0.699951 -5,1c-2,0.399963 -4,0.699951 -5.899994,1c-2.600006,0.5 -5.300018,0.599976 -7.900024,0.899963c-4.199982,1.100037 -8.599976,0.600037 -12.799988,0.700012c-4.299988,-0.099976 -8.600006,0.400024 -12.800003,-0.700012c-2.899994,-0.299988 -5.899994,-0.299988 -8.800003,-0.799988c-1.699997,-0.400024 -3.399994,-0.700012 -5,-1.200012c-1.699997,-0.299988 -3.299988,-0.5 -5,-0.899963c-0.5,-0.200012 -1.399994,-0.5 -1.899994,-0.700012c-1.699997,-0.5 -3.399994,-0.900024 -5.100006,-1.400024c-0.5,-0.099976 -1.399994,-0.299988 -1.899994,-0.399963c-1.699997,-1 -3.399994,-1.900024 -5.100006,-2.800049c-0.399994,0 -1.399994,-0.099976 -1.899994,-0.199951c-3.300003,-2.200012 -6.800003,-4 -10,-6.300049c-2.899994,-2.199951 -5.300003,-4.799988 -7.800003,-7.299988c-3.199997,-3 -4.5,-7.299988 -6.599991,-10.899963c-0.100006,-1.700012 -0.100006,-3.400024 -0.100006,-5c-0.800003,-0.700012 -1.600006,-1.400024 -2.300003,-2.200012c-1.5,-0.299988 -3,-0.600037 -4.399994,-0.900024c-2.699997,-0.299988 -5.400009,-0.399963 -8,-0.899963c-0.900009,-0.200012 -1.900009,-0.400024 -2.800003,-0.600037c-7.699997,-3.599976 -15.199997,-8.5 -19.399994,-16.199982c-0.100006,-0.5 -0.400009,-1.5 -0.5,-2c-0.900009,-4.5 -0.5,-9 -0.600006,-13.600006c0,-3.600006 -0.300003,-7.299988 0.800003,-10.799988c0.699997,-6 -0.600006,-12.100006 1,-18c0.399994,-13.100006 0.300003,-26.300018 0,-39.400024c-0.699997,-2.799988 -0.900009,-5.599976 -1.400009,-8.299988c-0.299988,-1.399994 -0.699997,-2.700012 -1.099991,-4.100006c-0.300003,-1.299988 -0.600006,-2.600006 -1,-4c-0.100006,-0.5 -0.400009,-1.399994 -0.5,-1.899994c-2,-3.899994 -3.900009,-8.100006 -7,-11.299988c-2.300003,-2.400024 -5.5,-3.5 -8.300003,-5c-0.5,-0.200012 -1.399994,-0.5 -1.899994,-0.700012c-5.400009,-0.799988 -10.900009,-0.899994 -16.300003,0.100006c-0.900002,0.199982 -1.800003,0.399994 -2.800003,0.600006c-10.900002,4.199982 -18.900002,13.699982 -23.300003,24.299988c-0.199997,1 -0.5,2 -0.799995,3c-0.400002,1 -0.800003,2.100006 -1.200005,3.100006c-0.099998,0.399994 -0.299995,1.399994 -0.399994,1.799988c-0.400002,1 -0.800003,2.100006 -1.200005,3.100006c-0.400002,2 -0.799995,4.100006 -1.199997,6.100006c-0.400002,1.699982 -0.700005,3.399994 -1.099998,5.100006c-0.200005,1.5 -0.400002,3.099976 -0.600006,4.599976c-0.799995,3.200012 -0.699997,6.600006 -1,9.900024c-1.099998,4.199982 -0.599998,8.5 -0.699997,12.799988c0.099998,8 -0.199997,16.100006 0.199997,24.200012c1.200005,3.899994 0.700005,8 1,12c0.800003,2.599976 0.800003,5.299988 1.100006,8c1.099998,5.099976 1,10.299988 0.199997,15.399963c-0.400002,1.700012 -0.800003,3.400024 -1.199997,5c-0.200005,1 -0.300003,1.900024 -0.5,2.900024c-1.800003,3.5 -3.5,7.099976 -6,10.200012c-2.300003,2.700012 -5.300003,4.299988 -8.200005,6.200012c-0.5,0.099976 -1.5,0.399963 -2,0.599976c-4.699997,0.799988 -9.5,0.799988 -14.199997,0c-0.5,-0.200012 -1.400002,-0.5 -1.900002,-0.700012c-10.900002,-4.899963 -18.099998,-15.099976 -23.4,-25.299988c-0.1,-0.5 -0.1,-1.5 -0.200001,-2c-0.6,-1 -1.199999,-2 -1.799999,-3c-0.1,-0.5 -0.1,-1.5 -0.200001,-2c-0.6,-1 -1.199999,-2 -1.799999,-3c-0.1,-0.5 -0.200001,-1.399994 -0.300001,-1.899994c-0.4,-1 -0.799999,-2 -1.099998,-3.100006c-0.400002,-1 -0.800001,-2 -1.1,-3c-0.300001,-1.299988 -0.6,-2.600006 -0.9,-3.899994c-0.5,-1.800018 -0.900002,-3.5 -1.400002,-5.200012c-0.199999,-0.899994 -0.4,-1.799988 -0.599998,-2.799988c-0.400002,-1.600006 -0.800001,-3.300018 -1.1,-5c-0.5,-2.399994 -0.700001,-4.800018 -1.200001,-7.200012c-0.299999,-2.100006 -0.6,-4.100006 -1.1,-6.100006c-0.199999,-2.299988 -0.499998,-4.699982 -1,-6.899994c-1.299999,-8.100006 -1.499999,-16.299988 -2.299999,-24.399994c0.1,-19.299988 -0.2,-38.600006 0.2,-57.899994c0.900001,-4.899994 0.8,-9.899994 0.5,-14.899994c0.2,-8.100006 2.2,-16 3.000001,-24c0.599998,-8 1.599998,-16 3,-23.900024c0.199999,-2.399994 0.4,-4.699982 0.9,-7c0.299999,-2.399994 0.5,-4.699982 1,-7c0.299999,-2 0.6,-4 1,-6c0.299999,-2 0.6,-4 1.1,-6c0.199999,-1.5 0.4,-3.099976 0.599998,-4.599976c0.5,-2.100006 0.900002,-4.200012 1.400002,-6.300018c0.299999,-1.699982 0.599998,-3.399994 0.9,-5c0.299999,-1.699982 0.6,-3.399994 1,-5c0.299999,-1.699982 0.699999,-3.399994 1,-5c0.299999,-1.699982 0.6,-3.399994 1,-5c0.299999,-1.699997 0.699999,-3.399994 1.1,-5c0.199999,-1 0.399998,-1.899994 0.599998,-2.799988c0.5,-2 0.900002,-4.100006 1.299999,-6.100006c0.400002,-1 0.700001,-2 1.100002,-3c0.299999,-1.100006 0.700001,-2.100006 1.099998,-3.100006c0.100002,-0.5 0.200001,-1.399994 0.299999,-1.899994c0.600002,-1 1.200001,-2 1.800003,-3c0.099998,-0.5 0.099998,-1.5 0.199997,-2c5.200001,-8.899994 11.100002,-17.600006 19.400002,-23.899994c7.400002,-6.100006 15.599998,-11 24,-15.5c0.5,0 1.5,-0.200012 1.900002,-0.200012c1.699997,-0.899994 3.400002,-1.799988 5.099998,-2.699997c1,-0.300003 2,-0.599991 3.099998,-1c0.5,-0.099991 1.400002,-0.199997 1.900002,-0.300003c1,-0.599991 2,-1.199997 3,-1.799988c0.5,-0.100006 1.400002,-0.200012 1.900002,-0.300003c1,-0.400009 2.099998,-0.800003 3.099998,-1.199997c1.699997,-0.400009 3.400002,-0.800003 5,-1.300003c0.5,-0.100006 1.5,-0.5 1.900002,-0.600006c2.099998,-0.5 4.099998,-0.899994 6.199997,-1.399994c0.900002,-0.199997 1.900002,-0.400009 2.800003,-0.600006c1.599998,-0.399994 3.299995,-0.800003 5,-1.099991c1.599998,-0.400009 3.299995,-0.700012 5,-1c1.599998,-0.400009 3.299995,-0.700012 4.999992,-1c1.600006,-0.400009 3.300003,-0.700012 5,-1c1.900009,-0.400009 3.900009,-0.700012 5.900009,-0.900009c2,-0.5 4,-0.800003 6,-1.099991c2.800003,-0.600006 5.599991,-0.600006 8.399994,-0.600006c-0.899994,1 -1.899994,2 -2.899994,2.899994c-3.5,3.100006 -6.600006,6.800003 -10.199997,9.800003c-2.400009,2.100006 -5.600006,2.699997 -8.700012,3.199997c-18.099991,2.700012 -36.199997,7.200012 -52.899994,15.100006c-7.800003,4.199997 -15.300003,9.100006 -21.700001,15.300003c-7.299999,7.5 -13.099998,16.5 -16.700001,26.399994c-2.099998,5.5 -3.399998,11.300003 -4.799999,17.099991c-8.9,35.5 -15.099998,71.700012 -17.9,108.200012c-0.699999,7.600006 -1.1,15.299988 -0.9,23c0.299999,14.299988 -0.799999,28.700012 0.9,43c1.700001,18.399994 4.6,36.799988 10.999998,54.100006c3.300003,9.5 8.100002,18.600006 15.000004,25.999969c4.299999,4.200012 9.899998,8 16.099998,7.900024c6,-0.700012 8.800003,-7.200012 9.5,-12.599976c1.599998,-14.100037 -0.400002,-28.300018 -0.800003,-42.400024c-1.699997,-16.399994 -0.699997,-32.899994 2.200005,-49.100006c2.900002,-14.799988 8.199997,-29.899994 19.799995,-40.199982c6.200005,-6.5 15.400002,-8.400024 22.700005,-13.300018c9,-5.699982 18.099998,-12.399994 22.700005,-22.399994c4,-8 4.199997,-17.200012 4,-26c-4.300003,-2.700012 -8.900009,-5 -13.400009,-7.200012c0.900009,-2 1.800003,-3.899994 2.699997,-5.799988c1.300003,0 2.700012,0.100006 4,0.100006c3.5,3.299988 7.700012,7.699982 13,6.399994c6.700012,-1.799988 9.300003,-8.899994 12.100006,-14.5c0.600006,0 1.899994,0 2.600006,-0.100006c0.5,4 0.899994,7.899994 1.099991,11.899994c-4.5,3.800018 -11.099991,6.300018 -13.099991,12.300018c-0.200012,9.799988 7,18.100006 7,27.899994c0.399994,6.799988 -4,13.5 -10.5,15.700012c-6.5,2.299988 -13.600006,1.099976 -20.300003,1.299988c-0.5,0.600006 -1.400002,1.899994 -1.900002,2.600006c7.700005,0.199982 15.599998,1.5 22.099998,6c7.399994,5.199982 12.199997,13.5 14.800003,22.100006c3.099991,10.099976 4.699997,20.699982 4.699997,31.299988c0.199997,5.399994 0.199997,11 1.800003,16.200012c1.699997,4.399994 3.800003,8.599976 4.899994,13.199982c0.699997,-4.799988 1.800003,-9.399994 3.199997,-14c2.100006,0.700012 4.200012,1.600006 6.300003,2.399994c-2.300003,-14.5 -4.199997,-29.899994 -12.899994,-42.299988c-2.699997,-4 -8.5,-6.799988 -7.5,-12.5c-0.5,-2.899994 2.399994,-3.700012 4.399994,-4.799988c8.300003,8.5 13.800003,19.199982 17.600006,30.299988c0.599991,-1.799988 1.199997,-3.5 1.800003,-5.299988c21.099991,-10.800018 42.799988,-20.200012 64.099991,-30.5c54.300003,-25.400024 108.500015,-50.900024 162.800003,-76.400024c-18.700012,-9.399994 -38,-17.799988 -56.899994,-27c-12.300018,-5.599976 -24.399994,-11.5 -36.700012,-17.099976c-7,-3 -13.600006,-6.900009 -20.799988,-9.500015c0,4.900009 -0.300018,9.800003 -1.300018,14.599991c-3.599976,-2.5 -7.5,-4.5 -11.5,-6.299988c1,-7.5 1,-15 0.200012,-22.5c-1.399994,-21.699997 -4.700012,-43.800003 -14.5,-63.600006c-5,-9.399994 -11.200012,-19.099991 -21.300003,-23.599991c-7.099991,-3.600006 -15.5,-4.199997 -23.099991,-1.699997c-11.400009,3.199997 -20.900009,10.599991 -29.700012,18.299988c-9.099991,8.800003 -15.799988,19.600006 -23.099991,29.800003c-4.800003,6.699997 -11.199997,12.600006 -19.199997,15c-4.900009,1.5 -10.100006,1.400009 -15.200012,1.300003c-0.899994,-0.800003 -1.799988,-1.699997 -2.699997,-2.5c-0.099991,-6.199997 2.199997,-12 6,-16.800003c5.300003,-7.199997 11,-14 17.199997,-20.399994c15,-13.900009 31.100006,-27.100006 49.700012,-36.199997c0.399994,0 1.399994,-0.100006 1.799988,-0.200012c1,-0.599991 2,-1.099991 3,-1.699997c1.100006,-0.300003 2.100006,-0.5 3.100006,-0.800003c1,-0.399994 2,-0.799988 3.100006,-1.199997c0.399994,-0.099991 1.299988,-0.399994 1.799988,-0.5c1.700012,-0.5 3.300003,-0.800003 5,-1.199997z" fill="#30adfd"/>
  <path id="svg_2" d="m222.600006,22.600006c7.599991,-2.5 16,-1.900009 23.099991,1.699997c10.099991,4.5 16.300003,14.199997 21.300003,23.599991c9.799988,19.800003 13.100006,41.900009 14.5,63.600006c0.799988,7.5 0.799988,15 -0.200012,22.5c4,1.799988 7.900024,3.799988 11.5,6.299988c1,-4.799988 1.300018,-9.699982 1.300018,-14.599991c7.199982,2.600006 13.799988,6.500015 20.799988,9.500015c12.300018,5.599976 24.399994,11.5 36.700012,17.099976c18.899994,9.200012 38.199982,17.600006 56.899994,27c-54.299988,25.5 -108.5,51 -162.800003,76.400024c-21.300003,10.299988 -43,19.699982 -64.099991,30.5c-0.600006,1.799988 -1.200012,3.5 -1.800003,5.299988c-3.800003,-11.100006 -9.300003,-21.799988 -17.600006,-30.299988c-2,1.099976 -4.899994,1.899994 -4.399994,4.799988c-1,5.700012 4.800003,8.5 7.5,12.5c8.699997,12.399994 10.599991,27.799988 12.899994,42.299988c-2.099991,-0.799988 -4.199997,-1.699982 -6.300003,-2.399994c-1.399994,4.600006 -2.5,9.200012 -3.199997,14c-1.099991,-4.600006 -3.199997,-8.799988 -4.899994,-13.199982c-1.600006,-5.200012 -1.600006,-10.800018 -1.800003,-16.200012c0,-10.600006 -1.600006,-21.200012 -4.699997,-31.299988c-2.600006,-8.600006 -7.400009,-16.900024 -14.800003,-22.100006c-6.5,-4.5 -14.399994,-5.800018 -22.099998,-6c0.5,-0.700012 1.400002,-2 1.900002,-2.600006c6.699997,-0.200012 13.800003,1 20.300003,-1.299988c6.5,-2.200012 10.899994,-8.900024 10.5,-15.700012c0,-9.799988 -7.200012,-18.100006 -7,-27.899994c2,-6 8.599991,-8.5 13.099991,-12.300018c-0.199997,-4 -0.599991,-7.899994 -1.099991,-11.899994c-0.700012,0.100006 -2,0.100006 -2.600006,0.100006c-2.800003,5.600006 -5.399994,12.700012 -12.100006,14.5c-5.299988,1.299988 -9.5,-3.100006 -13,-6.399994c-1.299988,0 -2.699997,-0.100006 -4,-0.100006c-0.899994,1.899994 -1.799988,3.799988 -2.699997,5.799988c4.5,2.200012 9.100006,4.5 13.400009,7.200012c0.199997,8.799988 0,18 -4,26c-4.600006,10 -13.700005,16.700012 -22.700005,22.399994c-7.300003,4.899994 -16.5,6.800018 -22.700005,13.300018c-11.599998,10.299988 -16.899994,25.399994 -19.799995,40.199982c-2.900002,16.200012 -3.900002,32.700012 -2.200005,49.100006c0.400002,14.100006 2.400002,28.299988 0.800003,42.400024c-0.699997,5.399963 -3.5,11.899963 -9.5,12.599976c-6.200001,0.099976 -11.799999,-3.700012 -16.099998,-7.900024c-6.900002,-7.399963 -11.700001,-16.499969 -15.000004,-25.999969c-6.399998,-17.300018 -9.299997,-35.700012 -10.999998,-54.100006c-1.699999,-14.299988 -0.6,-28.700012 -0.9,-43c-0.200001,-7.700012 0.200001,-15.399994 0.9,-23c2.800001,-36.5 9,-72.700012 17.9,-108.200012c1.400002,-5.799988 2.700001,-11.599991 4.799999,-17.099991c3.600002,-9.899994 9.400002,-18.899994 16.700001,-26.399994c6.399998,-6.199997 13.899998,-11.100006 21.700001,-15.300003c16.699997,-7.899994 34.800003,-12.399994 52.899994,-15.100006c3.100006,-0.5 6.300003,-1.099991 8.700012,-3.199997c3.599991,-3 6.699997,-6.699997 10.199997,-9.800003c2.399994,-1.599991 5.300003,-2.099991 8.099991,-2.599991c-6.199997,6.399994 -11.899994,13.199997 -17.199997,20.399994c-3.800003,4.800003 -6.099991,10.600006 -6,16.800003c0.900009,0.800003 1.800003,1.699997 2.699997,2.5c5.100006,0.100006 10.300003,0.199997 15.200012,-1.300003c8,-2.399994 14.399994,-8.300003 19.199997,-15c7.300003,-10.199997 14,-21 23.099991,-29.800003c8.800003,-7.699997 18.300003,-15.099991 29.700012,-18.299988z" fill="#0166be"/>
  <path id="svg_3" d="m284.799988,52c7.100006,0.100006 14.200012,0.199997 21.200012,-0.800003c9,-0.399994 18,-0.599991 27,0.600006c7.399994,0.599991 14.799988,-0.400009 22.200012,0.800003c21.699982,1.199997 43.599976,3.799988 64.699982,9.599991c28.800018,7.900009 56.5,20.600006 80.600006,38.400009c5.100037,3.799988 9,9.299988 14.900024,12c3.399963,0.899994 7.099976,0.399994 10.599976,0.399994c28.099976,-0.100006 56.200012,0.100006 84.299988,0c-1.799988,-7.300003 -5.599976,-15.100006 -3,-22.600006c1.700012,-5.199997 7.700012,-7.399994 12.700012,-7.199997c5.700012,0.400009 11.5,1.600006 16.700012,4c-1.900024,4.400009 -5.100037,8.100006 -8.600037,11.199997c-0.099976,1.5 -0.099976,2.900009 -0.099976,4.400009c8.400024,1.5 17.900024,0.800003 25.099976,6.199997c0,1.300003 -0.099976,2.699997 -0.099976,4c-6.900024,4.399994 -15.599976,3.699997 -23.099976,6.899994c0,1.400009 0,2.700012 0.099976,4.100006c5.299988,3.399994 11.400024,5.800003 16.099976,10.200012c-0.099976,1.5 -0.099976,2.899994 -0.099976,4.399994c-0.900024,0.799988 -1.599976,1.699982 -2.400024,2.5c-5.099976,0 -10.199951,-0.700012 -14.899963,-2.800018c-6.5,-3 -13.799988,-6 -16.799988,-12.999985c1.699951,-2.100006 3.5,-4.199997 5.399963,-6.300003c-11.099976,0.300003 -22.299988,-0.699997 -33.299988,0.800003c-7,0.399994 -14,-0.100006 -21,1c-11,0.099991 -22.099976,1.199997 -33,3.300003c-8.400024,1.5 -15.900024,5.899994 -23.599976,9.199982c-7.300018,3.900024 -15.100037,6.900024 -22.400024,10.700012c-10.600006,4.600006 -20.899994,10 -31.5,14.600006c-1.200012,0.600006 -2.399994,-0.200012 -3.5,-0.600006c-46,-21.700012 -92.100006,-43.199997 -138.100006,-64.800003c-6.100006,-2.699997 -11.899994,-5.899994 -18.199982,-8.099991c-0.600006,-1.600006 -0.800018,-3.300003 -1.100006,-4.900009c-1.300018,-9.599991 -3.700012,-19 -6.800018,-28.199997z" fill="#0166be"/>
  <path id="svg_4" d="m296,91.899994c3.100006,1.700012 6.399994,3.300003 9.600006,5c0.399994,0 1.399994,0.200012 1.799988,0.300003c5,2.600006 10.200012,5 15.200012,7.699997c0.399994,0 1.399994,0.200012 1.799988,0.200012c4.399994,2.399994 8.800018,4.399994 13.200012,6.799988c0.399994,0 1.399994,0.200012 1.799988,0.200012c5,2.699997 10.200012,5.099991 15.200012,7.799988c0.399994,0 1.399994,0.200012 1.799988,0.300003c4.399994,2.300003 8.800018,4.300003 13.200012,6.699997c0.399994,0 1.399994,0.200012 1.799988,0.200012c5,2.699997 10.200012,5.100006 15.200012,7.799988c0.399994,0 1.399994,0.200012 1.799988,0.200012c4.399994,2.399994 8.800018,4.399994 13.200012,6.799988c0.399994,0 1.399994,0.200012 1.799988,0.200012c5,2.699982 10.200012,5.100006 15.200012,7.799988c0.399994,0 1.399994,0.200012 1.799988,0.200012c5,2.699982 10.200012,5.100006 15.200012,7.799988c0.399994,0 1.399994,0.200012 1.799988,0.200012c3.700012,2 7.600006,3.799988 11.200012,5.899994c1.899994,0 3.799988,0 5.699982,0c3.700012,-2.100006 7.600006,-3.899994 11.300018,-5.899994c0.399994,0 1.399994,-0.200012 1.799988,-0.200012c5,-2.699982 10.200012,-5.100006 15.200012,-7.799988c0.399994,0 1.399994,-0.200012 1.799988,-0.200012c4.399994,-2.399994 8.800018,-4.399994 13.200012,-6.799988c0.399994,0 1.399994,-0.200012 1.799988,-0.200012c5,-2.699982 10.199982,-5.100006 15.199982,-7.799988c0.5,0 1.400024,-0.100006 1.900024,-0.200012c1.900024,-1.100006 3.799988,-2.100006 5.599976,-3.299988c1.100037,0.699982 2.200012,1.299988 2.900024,2.399994c4.400024,5.399994 7.700012,11.5 10.900024,17.600006c0.099976,0.5 0.099976,1.5 0.099976,2c-4.900024,2.299988 -9.799988,4.699982 -14.599976,7.299988c-0.400024,0 -1.400024,0.200012 -1.800049,0.200012c-5,2.699982 -10.199951,5.100006 -15.199982,7.799988c-0.399994,0 -1.399994,0.200012 -1.799988,0.200012c-4.399994,2.399994 -8.899994,4.399994 -13.200012,6.799988c-0.600006,0 -1.799988,0.100006 -2.399994,0.200012c0,1.799988 0,3.699982 0,5.5c4.200012,2 8.399994,4.100006 12.600006,6.299988c0.399994,0 1.399994,0.200012 1.799988,0.200012c5.000031,2.699982 10.199982,5.100006 15.199982,7.799988c0.400024,0 1.400024,0.200012 1.800049,0.200012c4.399963,2.399994 8.799988,4.399994 13.199951,6.799988c0.400024,0 1.400024,0.200012 1.800049,0.200012c2.799988,1.600006 5.699951,3 8.599976,4.299988c0,1.700012 -0.099976,3.300018 -0.099976,4.899994c-0.600037,1.800018 -1.100037,3.5 -1.700012,5.300018c-0.100037,0.399994 -0.299988,1.399994 -0.400024,1.799988c-0.399963,1 -0.799988,2 -1.200012,3.100006c-0.299988,1 -0.599976,2 -0.899963,3c-1.100037,2.200012 -2.200012,4.5 -3.200012,6.799988c-2.099976,-1.099976 -4.099976,-2.099976 -6.099976,-3.199982c-0.400024,0 -1.400024,-0.200012 -1.800049,-0.200012c-4.399963,-2.399994 -8.799988,-4.399994 -13.199951,-6.799988c-0.400024,0 -1.400024,-0.200012 -1.800049,-0.200012c-5,-2.699982 -10.199982,-5.100006 -15.199982,-7.799988c-0.399994,0 -1.399994,-0.200012 -1.799988,-0.200012c-4.399994,-2.399994 -8.800018,-4.399994 -13.200012,-6.799988c-0.399994,0 -1.399994,-0.200012 -1.799988,-0.200012c-5,-2.699982 -10.200012,-5.100006 -15.200012,-7.799988c-0.399994,0 -1.399994,-0.200012 -1.799988,-0.200012c-3.100006,-1.699982 -6.200012,-3.199982 -9.200012,-4.799988c-1.299988,-0.100006 -2.5,-0.100006 -3.799988,0c-3,1.600006 -6.100006,3.100006 -9.200012,4.799988c-0.399994,0 -1.399994,0.200012 -1.799988,0.200012c-5,2.699982 -10.200012,5.100006 -15.200012,7.799988c-0.399994,0 -1.399994,0.200012 -1.799988,0.200012c-4.399994,2.399994 -8.800018,4.399994 -13.200012,6.799988c-0.399994,0 -1.399994,0.200012 -1.799988,0.200012c-5,2.699982 -10.200012,5.100006 -15.200012,7.799988c-0.399994,0 -1.399994,0.200012 -1.799988,0.200012c-5,2.699982 -10.200012,5.100006 -15.200012,7.799988c-0.399994,0 -1.399994,0.200012 -1.799988,0.200012c-4.399994,2.399994 -8.800018,4.399994 -13.200012,6.799988c-0.399994,0 -1.399994,0.200012 -1.799988,0.200012c-5,2.699982 -10.200012,5.100006 -15.200012,7.799988c-0.399994,0 -1.399994,0.200012 -1.799988,0.200012c-4.399994,2.399994 -8.800018,4.399994 -13.200012,6.799988c-0.399994,0 -1.399994,0.200012 -1.799988,0.200012c-5,2.699982 -10.200012,5.100006 -15.200012,7.799988c-0.399994,0 -1.399994,0.200012 -1.799988,0.200012c-4.399994,2.399994 -8.800018,4.399994 -13.200012,6.799988c-0.399994,0 -1.399994,0.200012 -1.799988,0.200012c-3.100006,1.699982 -6.200012,3.199982 -9.300018,4.799988c-4.099976,-4.100006 -7.899994,-8.600006 -12.699982,-12c-2.100006,0.100006 -4.200012,0 -6.300018,0.300018c-2.599976,1.899994 -1,5.699982 -0.799988,8.399994c0.200012,0.5 0.5,1.399994 0.700012,1.899994c0.899994,1.600006 1.699982,3.299988 2.5,5c0.399994,1.100006 0.799988,2.299988 1.199982,3.5c-2.5,1.299988 -5,2.5 -7.5,3.899994c-0.399994,0 -1.399994,0.200012 -1.799988,0.200012c-4.399994,2.399994 -8.800018,4.399994 -13.200012,6.799988c-0.399994,0 -1.399994,0.200012 -1.799988,0.200012c-5,2.699982 -10.200012,5.100006 -15.200012,7.799988c-0.399994,0 -1.399994,0.200012 -1.799988,0.200012c-4.400009,2.399994 -8.800003,4.399994 -13.200012,6.799988c-0.399994,0 -1.399994,0.200012 -1.799988,0.200012c-5,2.699982 -10,5.100006 -15.100006,7.600006c-1.199997,0.399994 -2.300003,0.799988 -3.5,1.299988c0,-3.600006 0.300003,-7.299988 -0.800003,-10.799988c-0.300003,-3.700012 0.100006,-7.5 -1,-11c-0.099991,-1.600006 -0.300003,-3.300018 -0.099991,-4.900024c4.799988,-3.299988 10.399994,-5.199982 15.5,-8.199982c0.399994,0 1.399994,-0.200012 1.799988,-0.200012c4.400009,-2.399994 8.800003,-4.399994 13.200012,-6.799988c0.399994,0 1.399994,-0.200012 1.799988,-0.200012c5,-2.699982 10.200012,-5.100006 15.200012,-7.799988c0.399994,0 1.399994,-0.200012 1.799988,-0.200012c5,-2.699982 10.200012,-5.100006 15.200012,-7.799988c0.399994,0 1.399994,-0.200012 1.799988,-0.200012c4.399994,-2.399994 8.800018,-4.399994 13.200012,-6.799988c0.399994,0 1.399994,-0.200012 1.799988,-0.200012c5,-2.699982 10.200012,-5.100006 15.200012,-7.799988c0.399994,0 1.399994,-0.200012 1.799988,-0.200012c4.399994,-2.399994 8.800018,-4.399994 13.200012,-6.799988c0.399994,0 1.399994,-0.200012 1.799988,-0.200012c5,-2.699982 10.200012,-5.100006 15.200012,-7.799988c0.399994,0 1.399994,-0.200012 1.799988,-0.200012c5,-2.699982 10.200012,-5.100006 15.200012,-7.799988c0.399994,0 1.399994,-0.200012 1.799988,-0.200012c4.399994,-2.399994 8.800018,-4.399994 13.200012,-6.799988c0.399994,0 1.399994,-0.200012 1.799988,-0.200012c5,-2.699982 10.200012,-5.100006 15.200012,-7.799988c0.399994,0 1.399994,-0.200012 1.799988,-0.200012c4.399994,-2.399994 8.800018,-4.399994 13.200012,-6.799988c0.399994,0 1.399994,-0.200012 1.799988,-0.200012c5,-2.699982 10.200012,-5.100006 15.200012,-7.799988c0.399994,0 1.399994,-0.200012 1.799988,-0.200012c4.200012,-2.199982 8.399994,-4.299988 12.600006,-6.299988c0,-1.800018 0,-3.700012 0,-5.5c-0.600006,-0.100006 -1.799988,-0.200012 -2.399994,-0.200012c-4.300018,-2.399994 -8.800018,-4.399994 -13.200012,-6.799988c-0.399994,0 -1.399994,-0.200012 -1.799988,-0.200012c-5,-2.699982 -10.200012,-5.100006 -15.200012,-7.799988c-0.399994,0 -1.399994,-0.200012 -1.799988,-0.200012c-4.399994,-2.399994 -8.800018,-4.399994 -13.200012,-6.799988c-0.399994,0 -1.399994,-0.200012 -1.799988,-0.200012c-5,-2.699982 -10.200012,-5.100006 -15.200012,-7.799988c-0.399994,0 -1.399994,-0.200012 -1.799988,-0.200012c-5,-2.699982 -10.200012,-5.100006 -15.200012,-7.799988c-0.399994,0 -1.399994,-0.200012 -1.799988,-0.200012c-4.399994,-2.399994 -8.800018,-4.399994 -13.200012,-6.799988c-0.399994,0 -1.399994,-0.200012 -1.799988,-0.200012c-5,-2.699997 -10.200012,-5.099991 -15.200012,-7.699997c-0.399994,-0.099991 -1.299988,-0.300003 -1.799988,-0.399994c-1.5,-0.699997 -3.100006,-1.5 -4.600006,-2.199997c0,-9.600006 0,-19.100006 0,-28.700012z" fill="#feffff"/>
  <path id="svg_5" d="m647.900024,97.800003c-1.900024,1.5 -2.5,-1.699997 -0.200012,-0.900009l0.200012,0.900009z" fill="#0166be"/>
  <path id="svg_6" d="m83,103.899994c9.300003,-4.899994 20.099998,-2.699997 29.800003,-0.599991c5,1 9.800003,3.199997 13.899994,6.099991c-0.599991,1.200012 -1.300003,2.400009 -2.099991,3.5c-5.600006,0.400009 -11.000008,-1.899994 -16.600006,-2c-6.099998,-0.399994 -11.900002,2.300003 -18,2.200012c-2.699997,0.099991 -4.900002,-1.800003 -7,-3.100006c0,-2 0,-4.100006 0,-6.100006z" fill="#30adfd"/>
  <path id="svg_7" d="m646.700012,122.300003c0.5,0.5 0.5,0.5 0,0z" fill="#0166be"/>
  <path id="svg_8" d="m89.300003,130.300018c5,-4.400024 11.5,-8.200012 18.399994,-7.000015c2.700005,0.300003 4.300003,2.699997 5.900002,4.699997c-5.599998,2.300018 -11.699997,2.5 -17.199997,4.700012c4.5,0.5 9.599998,-0.5 13.599998,2.299988c4.5,2.700012 6.199997,8.100006 6.900002,13c0.599998,5.799988 -4.099998,10.399994 -8.400002,13.399994c-7,5.399994 -17.300003,5.399994 -24.699997,0.899994c-3.700005,-2.399994 -5.100006,-7 -4.900002,-11.299988c-0.400002,-8.200012 4.400002,-15.600006 10.400002,-20.699982z" fill="#30adfd"/>
  <path id="svg_9" d="m95.199997,133.200012c0.600006,0.5 0.600006,0.5 0,0z" fill="#0166be"/>
  <path id="svg_10" d="m88.099998,150.100006c1.800003,-7.100006 9.800003,-11.600006 16.900002,-11.200012c-1.599998,1.399994 -3.300003,2.600006 -4.900002,3.899994c-0.099998,0.900024 -0.099998,1.900024 -0.099998,2.900024c1.400002,0.5 2.800003,1.099976 4.199997,1.599976c-0.399994,0.5 -1.099998,1.300018 -1.5,1.700012c-2,0 -4,0 -6,0c0.300003,2.100006 0.700005,4.100006 1,6.100006c-0.299995,1.199982 -0.599998,2.399994 -0.899994,3.600006c-1,0.5 -2.100006,1.099976 -3.100006,1.599976c-3.599998,-2 -6.5,-5.799988 -5.599998,-10.199982z" fill="#0166be"/>
  <path id="svg_11" d="m520,167c7,-2.899994 13.700012,-6.600006 20.700012,-9.5c2.899963,9.200012 4.700012,18.799988 5.299988,28.5c0.099976,5.799988 0,11.600006 0,17.399994c-17.200012,-7.899994 -34.299988,-16 -51.399994,-24c8.100006,-4.799988 17.100006,-7.899994 25.399994,-12.399994z" fill="#0166be"/>
  <path id="svg_12" d="m285,277.399994c55.5,-26.100006 111,-52.199982 166.600006,-78.100006c21.100006,9.900024 42.199982,19.800018 63.399994,29.700012c6.400024,3.299988 13.200012,5.700012 19.5,9.299988c-5.5,9.600006 -12.799988,17.900024 -20.700012,25.5c-2.599976,2.700012 -5.799988,5 -7.700012,8.300018c0.200012,1.5 0.700012,3 1.200012,4.5c7.799988,21.5 12.5,43.899994 15.299988,66.5c0.5,5.699982 1.400024,11.299988 1.400024,16.899994c-0.099976,7.100006 2.099976,14.100006 0.400024,21.100006c-1.100037,7.600006 -6.400024,13.699982 -12.600037,17.699982c-5.799988,3.700012 -12.299988,6.400024 -18.899994,8.5c-6.199982,-21.200012 -13.899994,-41.899994 -23.199982,-61.899994c-2.800018,-5.399994 -5.800018,-10.799988 -9.800018,-15.399994c-1.5,-1.899994 -4,-2.700012 -6.199982,-3.5c-1.200012,1.299988 -2.400024,2.600006 -3.600006,3.899994c-0.700012,3.600006 -1.100006,7.300018 -1.300018,11c-1.899994,-4.600006 -3.699982,-9.399994 -7.199982,-13.100006c-2.700012,-3 -6.800018,-3.899994 -10.600006,-4.799988c-2.799988,5.299988 -2,11.299988 -2,17c-2,-4.5 -4,-9.299988 -8.100006,-12.299988c-2.699982,-2.400024 -7.299988,-1.300018 -8.899994,1.799988c-2.399994,3.899994 -2.799988,8.600006 -3.200012,13l-0.599976,0c-1.900024,-17.299988 -4.400024,-34.5 -7.700012,-51.600006c-1.399994,-6 -2.5,-12.199982 -5.100006,-17.799988c-1.699982,-4 -5.600006,-6.399994 -8.899994,-9.100006c-3.299988,-2.399994 -6.899994,-5.299988 -11.200012,-4.399994c-2.099976,1.699982 -1.299988,4.600006 -1.199982,6.899994c1.299988,6.700012 4.399994,12.700012 7,18.899994c2.899994,6.899994 7.199982,13.300018 9.199982,20.600006c-8.199982,2.899994 -16.299988,6.100006 -24.899994,7.899994c-12.299988,2.399994 -25,3.700012 -37.5,1.700012c-9.100006,-1.5 -18.5,-2.700012 -26.600006,-7.300018c-4.899994,-10.699982 -9.5,-21.699982 -16.299988,-31.399994z" fill="#0166be"/>
  <path id="svg_13" d="m7.2,251.100006c-0.4,-5 0,-10 0.5,-14.899994c0.3,5 0.400001,10 -0.5,14.899994z" fill="#0166be"/>
  <path id="svg_14" d="m211,312c20.899994,-9.600006 41.700012,-19.600006 62.600006,-29.200012c11.5,33.400024 21.699982,67.700012 24.699982,103.200012c1.100006,6.200012 0.900024,12.599976 -0.399994,18.799988c-7.199982,7.5 -18,9.299988 -27.600006,11.5c-1,-11.5 -4.199982,-22.700012 -6.699982,-33.899994c-2.800018,-10.299988 -5.700012,-20.600006 -9.200012,-30.799988c-2.699982,-7.399994 -5.5,-15.300018 -11.699997,-20.600006c-1.199997,0 -2.399994,-0.100006 -3.5,-0.100006c-3.899994,3.600006 -4.399994,8.899994 -4.599991,13.800018c-2.5,-5.200012 -3.900009,-11.100006 -7.900009,-15.400024c-2.5,-2.599976 -6.199997,-3.099976 -9.5,-3.699982c-2,4.899994 -2.300003,10.199982 -2.599991,15.299988c-2.100006,-3.5 -3.200012,-7.600006 -5.5,-11c-1.600006,-2.299988 -4.900009,-3.899994 -7.5,-2.299988c-4.700012,2.100006 -5.800003,7.600006 -7.400009,12c0.100006,-6.800018 -1.099991,-13.399994 -1.300003,-20.100006c6.400009,-1.399994 12.300003,-4.5 18.100006,-7.5z" fill="#0166be"/>
  <path id="svg_15" d="m173.300003,323.399994c3.099991,3.700012 5.5,8.100006 6.300003,12.899994c2.099991,10.100006 3.5,20.400024 3.399994,30.700012c0,3.299988 0.800003,6.5 0.899994,9.799988c-2,1.900024 -5.199997,1 -7.699997,1.300018c-1.899994,-13.300018 -2.5,-26.700012 -4.099991,-40.100006c-0.5,-4.899994 -0.100006,-9.899994 1.199997,-14.600006z" fill="#0166be"/>
  <path id="svg_16" d="m163.199997,326.399994c3.5,6.700012 4.600006,14.200012 5.600006,21.600006c1.5,9.200012 1.099991,18.600006 2.300003,27.799988c-3,-2.199982 -6.800003,-4.599976 -7,-8.699982c-0.100006,-5.399994 -0.300003,-10.800018 -1,-16.100006c-0.200012,-8.200012 -0.200012,-16.399994 0.099991,-24.600006z" fill="#0166be"/>
  <path id="svg_17" d="m397.799988,331.600006c2.200012,9.699982 3.600006,19.600006 5,29.399994c0.300018,5.600006 1.900024,11.100006 1,16.700012c-1.5,2.199982 -4.5,1.299988 -6.699982,1.299988c-1.600006,0.100006 -1.800018,-1.899994 -2,-3c-1.300018,-11.5 -4,-22.899994 -5.200012,-34.399994c2.700012,-3.300018 5.300018,-6.600006 7.899994,-10z" fill="#0166be"/>
  <path id="svg_18" d="m362.700012,332.700012c4.099976,6.399994 3.399994,14.299988 2.899994,21.5c-1.600006,-7.100006 -2.600006,-14.300018 -2.899994,-21.5z" fill="#0166be"/>
  <path id="svg_19" d="m202.199997,333.600006c2.300003,2.399994 5.100006,4.600006 6.400009,7.799988c3.299988,8.100006 4.299988,16.899994 4.699997,25.5c1.099991,7.399994 0.899994,14.800018 -0.100006,22.199982c-0.099991,7 -0.5,14.100037 -1.399994,21.100037c-5.400009,-3 -10.699997,-7 -13.100006,-12.900024c-2.5,-8.200012 -1.599991,-16.899994 -1.699997,-25.299988c0.199997,-10.5 -0.800003,-21.100006 1.600006,-31.399994c0.699997,-2.600006 2.199997,-4.800018 3.599991,-7z" fill="#0166be"/>
  <path id="svg_20" d="m416.100006,333.5c8.5,5.100006 11.100006,15.299988 13.100006,24.299988c2.5,10.600006 3.5,21.400024 4.099976,32.200012c0.800018,5.799988 0.900024,11.599976 0.600006,17.400024c-4,-1.800049 -8.199982,-3.700012 -11.299988,-7.100037c-3.200012,-3 -4.200012,-7.399963 -5.5,-11.399963c-1.5,-5.200012 -3.300018,-10.500031 -3.100006,-16.000031c0.399994,-9.299988 -1.600006,-18.5 -1.100006,-27.899994c-0.299988,-4.100006 1,-8.100006 3.200012,-11.5z" fill="#0166be"/>
  <path id="svg_21" d="m434.200012,337.299988c1.099976,-1.099976 2.799988,-1.199982 4.199982,-1.799988c2.399994,2.700012 5.100006,5.200012 6.600006,8.5c2.899994,6.100006 4.200012,12.600006 5.700012,19.100006c3.199982,15.899994 4.5,32.100006 7,48.100006c-4.800018,-0.200012 -9.700012,-0.799988 -14.5,-1.400024c-1.600006,-10.599976 -3.300018,-21.200012 -5.5,-31.699982c-2.400024,-13.399994 -4.800018,-27.100006 -3.5,-40.800018z" fill="#0166be"/>
  <path id="svg_22" d="m456.5,335.799988c5,3.300018 8.799988,8.100006 11.200012,13.5c8.299988,19 12.299988,39.400024 16.5,59.600037c-6,1.099976 -12.100006,1.599976 -18.100006,2.299988c-3.399994,-13.600037 -6.300018,-27.300018 -9.399994,-41c-2.300018,-10.400024 -3.100006,-21.100006 -2.700012,-31.800018c0.799988,-0.799988 1.600006,-1.699982 2.5,-2.600006z" fill="#0166be"/>
  <path id="svg_23" d="m220.300003,337.700012c1.800003,0.399994 3.599991,0.899994 5.399994,1.299988c6.300003,9.100006 7.100006,20.299988 8.100006,31c0.399994,5 -0.100006,10 0.5,15c1.399994,10.400024 0.399994,20.799988 0.699997,31.200012c-4.699997,-0.299988 -9.300003,-1.200012 -13.899994,-2.400024c-0.700012,-12.200012 -1.400009,-24.399963 -2.5,-36.699982c-1.100006,-8 -0.400009,-16.100006 -0.600006,-24.100006c-0.199997,-5.200012 1.100006,-10.299988 2.300003,-15.299988z" fill="#0166be"/>
  <path id="svg_24" d="m240.100006,341c1.199997,0 2.399994,0 3.699997,0c3.099991,3.200012 5.699997,6.899994 7.099991,11.200012c7.5,20.699982 8.700012,42.899963 11.100006,64.599976c-6.200012,0.799988 -13.100006,2.700012 -18.899994,-0.599976c-1.400009,-16.100037 -3.800003,-32.100006 -5,-48.200012c-0.100006,-9 -0.900009,-18.299988 2,-27z" fill="#0166be"/>
  <path id="svg_25" d="m377.5,365.399994c-0.600006,-8.100006 4.5,-15 9.399994,-20.899994c2,11.100006 3.300018,22.399994 3.100006,33.700012c-5.299988,-2.900024 -12,-6 -12.5,-12.800018z" fill="#0166be"/>
 </g>
</svg>